<svg width="166" height="66" viewBox="0 0 166 66" fill="none" xmlns="http://www.w3.org/2000/svg">
<path d="M158.104 28.5268L133.705 11.6202C134.578 11.4646 137.219 10.4408 140.803 7.59032C145.284 4.02715 157.369 11.754 158.952 15.2847C160.218 18.1093 157.748 21.0069 156.355 22.1026L158.104 28.5268Z" fill="#FC8429"/>
<path d="M119.595 17.6631L121.701 8.80388C139.872 10.4953 154.596 25.0111 159.687 32.0576C158.187 34.7652 151.473 35.1743 148.303 35.0404C145.735 24.7714 128.094 19.1768 119.595 17.6631Z" fill="#FC8429"/>
<path d="M140.387 5.97899C139.051 6.38075 137.391 7.41796 136.664 8.2565C135.142 9.97679 133.171 10.0542 126.933 8.61317C125.19 8.21073 123.185 7.92496 122.415 7.92479C121.101 7.97637 121.075 8.08877 121.753 9.25186C122.203 10.1252 123.249 10.7221 124.71 11.0596L126.958 11.5789L125.341 12.6853C122.963 14.267 123.55 15.8235 126.71 16.4943C129.533 17.0872 131.185 16.344 131.25 14.5239C131.276 13.642 131.605 13.2444 132.111 13.3612C132.954 13.5559 140.851 17.8074 141.167 18.2354C141.309 18.3868 140.756 18.7325 139.965 19.0825C138.27 19.7566 137.911 20.7984 138.862 22.3204C139.696 23.5786 140.076 23.7257 132.745 20.6113C130.955 19.9019 127.423 18.7901 124.894 18.2059L120.23 17.1284L120.736 14.1671C121.485 9.90028 120.335 9.75304 118.998 14.0025C118.375 15.9305 117.973 17.6726 118.033 17.9234C118.081 18.2303 120.458 18.9572 123.268 19.6063C129.619 21.0732 137.837 24.4515 141.269 27.0202C143.538 28.7284 146.654 33.1776 146.394 34.3016C146.342 34.5264 146.731 35.149 147.215 35.616C147.929 36.3728 148.923 36.4249 152.273 36.0149C157.384 35.4194 159.316 34.7411 159.615 33.4485C159.745 32.8865 160.194 32.2209 160.679 31.9184C161.301 31.5294 161.379 31.1922 160.822 30.5306C160.463 30.0334 159.478 28.1483 158.635 26.4145C157.209 23.362 157.192 23.1804 158.333 22.0826C159.008 21.4688 159.791 19.8737 160.089 18.5811C160.557 16.558 160.375 15.8057 158.979 13.6481C155.643 8.61519 145.368 4.40645 140.387 5.97899ZM150.252 9.91528C156.58 12.502 158.988 15.6627 157.275 19.2333C156.276 21.252 155.523 21.4335 154.097 19.92C152.571 18.3244 146.334 14.5748 142.244 12.8014C140.468 12.0358 138.985 11.2789 138.855 11.0714C138.38 10.3104 141.16 8.52553 143.032 8.36598C145.687 8.15041 146.149 8.19807 150.252 9.91528ZM147.742 18.2153C151.053 20.2825 156.439 24.9009 155.886 25.2466C155.734 25.3892 154.783 24.6368 153.759 23.6898C152.735 22.7428 149.968 20.6238 147.574 18.9459C142.659 15.6202 142.763 15.1706 147.742 18.2153ZM152.189 25.8726C153.469 26.997 153.499 27.1223 152.474 26.9449C150.957 26.5943 149.452 27.7267 149.642 28.9545C149.806 30.2948 153.991 31.143 155.007 30.0754C155.734 29.2369 155.833 29.319 156.723 30.5903C157.212 31.295 157.466 32.2419 157.306 32.6785C157.103 33.0459 155.101 33.7674 152.827 34.1301C148.811 34.8598 148.642 34.8209 148.314 33.6795C147.653 31.1589 145.142 27.6782 142.73 25.8187L140.275 23.89L142.22 23.925C144.278 23.986 145.385 23.2945 145.749 21.7209C145.943 20.878 146.224 20.9429 148.381 22.6251C149.674 23.6932 151.42 25.1029 152.189 25.8726Z" fill="#2B2B2B"/>
<path d="M127.582 13.0933C126.296 13.905 124.363 15.4974 126.908 15.374C130.09 15.2198 129.31 13.1663 127.582 13.0933Z" fill="#E9D310"/>
<path d="M143.172 20.5659C141.766 20.1234 139.257 19.6751 140.476 21.4216C141.998 23.6046 143.834 21.8441 143.172 20.5659Z" fill="#E9D310"/>
<path d="M130.071 26.8015C128.731 26.9655 126.686 26.8483 125.562 26.5887C121.602 25.7923 122.951 28.4125 126.885 29.3212C129.133 29.8405 129.699 30.2081 130.585 32.0111C131.73 34.2291 131.526 36.1356 129.623 40.0174C128.045 43.2638 128.186 47.2628 129.928 48.4348C132.038 49.81 133.62 49.8795 136.564 48.6654L139.383 47.4814L137.313 45.9376C134.702 43.9138 134.283 40.8572 136.204 37.1569C136.865 35.8299 137.64 33.7592 137.925 32.5228C138.341 30.7245 138.203 30.0414 137.075 28.7744C135.532 26.9973 133.634 26.4997 130.071 26.8015Z" fill="#2B2B2B"/>
<path d="M80.469 18.8359C78.1471 20.4306 76.8535 24.7492 76.3762 32.4531C75.721 43.4901 75.4137 45.0766 73.8225 46.0706C71.332 47.6264 65.8377 45.5284 64.6235 42.5841C64.2735 41.7928 63.738 39.242 63.3883 36.9117C62.6588 32.1258 63.3033 30.6171 65.8884 31.2143C68.1926 31.7466 71.6296 31.475 73.3633 30.6323C75.5684 29.5434 74.9027 29.0936 71.2237 29.1317C67.4322 29.1438 64.8685 29.7356 61.9154 31.2437L59.8357 32.3024L58.3144 30.1751C56.4776 27.6197 54.3033 26.5254 50.7021 26.2263C44.0186 25.6888 36.5817 29.9498 33.5974 35.9497C32.369 38.4483 32.3084 38.967 32.8396 41.2801C33.6949 44.4967 33.3401 45.7763 31.4074 47.2242C29.4875 48.6158 23.4697 48.528 20.1973 47.0617C15.3601 44.938 11.9031 37.8644 12.7475 31.9029C13.2628 27.8782 13.7731 27.4632 17.0326 28.2162C22.4277 29.4625 31.148 27.3331 34.9057 23.8796C37.1758 21.7402 37.2797 21.2906 35.7971 19.7642C32.9315 16.7935 24.8427 17.4704 17.8598 21.3036C14.6041 23.097 13.7264 23.3086 11.5779 22.8715C10.2723 22.6291 8.37883 22.3693 7.48392 22.3994L5.77627 22.3601L6.60593 24.1501C7.08558 25.1488 7.98459 26.1261 8.68921 26.4073C9.56243 26.7274 9.75255 27.1857 9.4022 27.9335C7.06646 33.4321 6.9749 36.9036 9.05307 42.7706C11.9132 50.8903 23.8405 52.8167 34.2002 46.9222C36.0421 45.8677 36.5739 45.8721 40.2138 46.7722C43.9661 47.6982 44.5109 47.6464 48.4064 46.4152C50.7713 45.6591 53.2531 44.3973 54.066 43.6971C56.5135 41.3026 57.4948 41.4109 58.3156 44.2644C59.0457 46.7417 60.7962 48.3893 63.4375 48.9994C65.6293 49.5057 71.0119 48.4996 74.4535 46.9267C79.8667 44.5069 79.8667 44.5069 83.0784 46.492C86.1777 48.4511 89.0481 49.3509 89.2558 48.4518C89.3337 48.1146 88.9922 47.7989 88.4865 47.6821C87.0253 47.3445 83.637 42.5364 82.9761 40.0158C82.6867 38.7058 82.6961 35.3337 82.9388 32.4891C84.2995 17.8856 84.0491 16.407 80.469 18.8359ZM29.6576 22.253C30.1979 22.733 30.4528 23.6798 30.2711 24.4666C29.9984 25.6468 29.4709 25.8801 26.8294 26.0395C23.3492 26.2419 17.3532 25.0344 17.0421 24.0746C16.7483 23.2963 19.4638 21.0229 21.3013 20.5002C23.0134 20.0078 28.322 21.1157 29.6576 22.253ZM50.2561 29.4384C52.2099 30.7184 54.1676 33.7754 53.8691 35.068C53.5964 36.2481 51.9795 36.585 48.0844 36.2772C45.9271 36.134 44.9545 35.7318 43.1088 34.2398C40.4116 32.0777 40.1135 31.0616 41.5665 29.3846C43.1708 27.5648 47.494 27.5571 50.2561 29.4384ZM54.0322 40.2558C53.6819 41.0037 52.7002 42.4344 51.8785 43.4286C50.6461 44.9198 49.9932 45.1834 48.117 45.1052C44.2781 44.8103 41.17 43.1452 39.2296 40.2699C37.7212 38.0863 38.0801 37.814 41.4521 38.5929C43.9248 39.1642 45.4336 39.0391 49.1388 38.1191C53.1769 37.0392 53.834 37.0134 54.2273 37.8738C54.5038 38.4705 54.4517 39.4648 54.0322 40.2558Z" fill="#2B2B2B"/>
<path d="M119.462 28.9089C118.407 30.1451 118.156 30.9751 117.991 34.2521C117.817 37.823 117.605 38.4844 115.85 41.2163C112.584 46.3818 110.885 46.818 109.511 42.7712C108.95 41.1023 109.037 39.7017 109.984 35.5991C111.062 30.9346 111.066 30.4029 110.124 29.3565C109.566 28.6949 108.421 28.0159 107.634 27.8342C106.229 27.5096 100.164 28.6539 98.5291 29.5787C98.127 29.7818 96.3803 30.6807 94.6897 31.5925C90.1974 33.8698 89.0903 35.3308 88.3802 40.1986C87.8736 43.9294 87.9383 44.4179 89.2997 46.2124C91.3916 48.9451 93.8341 49.3909 99.0568 48.0519C102.343 47.1534 103.432 47.0499 104.158 47.7504C106.531 49.7785 111.347 49.1743 114.418 46.3908C121.976 39.5532 123.641 37.2147 123.81 33.406C124.049 28.7846 121.655 26.3371 119.462 28.9089ZM103.682 32.1305C104.598 33.2894 104.611 34.0027 103.629 38.5116C103.049 41.2783 102.706 44.0407 102.814 44.5985C102.983 45.4069 102.667 45.7484 101.357 46.0378C99.1263 46.4696 95.3354 44.1731 95.5995 42.5174C95.6861 41.8862 95.4141 39.9883 94.9217 38.2762C93.8418 34.2381 94.1186 33.2957 96.9551 31.5238C99.6531 29.8384 102.091 30.0464 103.682 32.1305Z" fill="#2B2B2B"/>
</svg>
