<svg width="161" height="123" viewBox="0 0 161 123" fill="none" xmlns="http://www.w3.org/2000/svg">
<path d="M102.283 88.3633H97.1524C95.7453 88.3633 94.4579 89.2138 93.8332 90.5568L89.0936 100.696C88.412 102.16 86.4559 102.16 85.7743 100.696L74.1818 75.8893C73.5064 74.4515 71.6004 74.4176 70.8876 75.8351L65.6118 86.2775C64.962 87.5598 63.7058 88.3633 62.3427 88.3633H57.7172" stroke="white" stroke-width="4" stroke-linecap="round" stroke-linejoin="round"/>
<path d="M35.3147 72.9999H29.5216C21.4313 72.9999 15.4299 81.0326 17.2095 89.4697L21.4818 109.72C22.7818 115.876 27.8934 120.25 33.7939 120.25H41.3414C43.3672 120.25 44.8628 118.245 44.421 116.132L36.2677 77.5156C29.9381 47.5254 51.2554 18.9999 80.0006 18.9999C108.745 18.9999 130.063 47.5254 123.733 77.5156L115.586 116.132C115.138 118.245 116.64 120.25 118.66 120.25H126.207C132.107 120.25 137.219 115.876 138.519 109.72L142.791 89.4697C144.571 81.0326 138.569 72.9999 130.479 72.9999H124.686" stroke="#04D361" stroke-width="4" stroke-linecap="round" stroke-linejoin="round"/>
<path d="M151.521 61.5452C89.4426 45.1452 30.1381 54.7119 8.94678 61.5452C8.94678 40.7119 24.4663 -0.55479 80.9349 1.04521C102.126 0.211912 145.911 11.1453 151.521 61.5452Z" fill="#D5A776" stroke="#A67926" stroke-width="2"/>
<path d="M80 12L83.1485 22.3647H93.3373L85.0944 28.7705L88.2429 39.1353L80 32.7295L71.7571 39.1353L74.9056 28.7705L66.6627 22.3647H76.8515L80 12Z" fill="white"/>
<path d="M125.343 24L127.967 32.6373H136.458L129.589 37.9754L132.212 46.6127L125.343 41.2746L118.474 46.6127L121.098 37.9754L114.229 32.6373H122.719L125.343 24Z" fill="white"/>
<path d="M34.6568 24L37.2806 32.6373H45.7713L38.9022 37.9754L41.5259 46.6127L34.6568 41.2746L27.7878 46.6127L30.4115 37.9754L23.5424 32.6373H32.0331L34.6568 24Z" fill="white"/>
<path d="M1 76C5.86154 70.4 8.32347 64 8.94675 61.5L15.4911 76C14.2446 76.8333 11.7515 79 11.7515 81C11.7515 83.4037 7.86231 71.9409 8.80908 62.6103C8.19002 65.9648 5.63507 74.2725 4.27219 78.5L1 76Z" fill="#A67926"/>
<path d="M8.94675 61.5C8.32347 64 5.86154 70.4 1 76L4.27219 78.5C5.83037 73.6667 8.94675 63.5 8.94675 61.5ZM8.94675 61.5L15.4911 76C14.2446 76.8333 11.7515 79 11.7515 81C11.7515 83.5 7.54438 71 8.94675 61.5Z" stroke="#A67926"/>
<path d="M159.491 76.5C154.63 70.9 152.168 64.5 151.544 62L145 76.5C146.247 77.3333 148.74 79.5 148.74 81.5C148.74 83.9037 152.629 72.4409 151.682 63.1103C152.301 66.4648 154.856 74.7725 156.219 79L159.491 76.5Z" fill="#A67926"/>
<path d="M151.544 62C152.168 64.5 154.63 70.9 159.491 76.5L156.219 79C154.661 74.1667 151.544 64 151.544 62ZM151.544 62L145 76.5C146.247 77.3333 148.74 79.5 148.74 81.5C148.74 84 152.947 71.5 151.544 62Z" stroke="#A67926"/>
</svg>
